<svg xmlns="http://www.w3.org/2000/svg" xmlns:xlink="http://www.w3.org/1999/xlink" xmlns:fi="http://pattern.flaticon.com/" x="0" y="0" width="1280" height="640" viewBox="0 0 1647.0588235294117 823.5294117647059"><rect x="0px" y="0px" width="100%" height="100%" opacity="0" fill="#ffffff"/><defs><g transform="matrix(0.12498463690280914 0 0 0.12498463690280914 303 242)" id="L1_0"><rect x="312px" y="103px" width="16px" height="16px" transform="matrix(1 -0.0054 0.0054 1 -0.5963 1.7244)" fill="#ffffff"/><path d="M472.059,255.405h-113.6l9.6-143.472c0.14-2.216-0.639-4.392-2.152-6.016c-1.565-1.542-3.653-2.438-5.848-2.512l-16,0.088    l0.08,16h7.408l-1.912,28.616l-23.2,12.872c-24.16,13.333-53.163,14.608-78.4,3.448v-44.448l48.04-0.248l-0.08-16l-47.936,0.248    V67.797l84.296-53.6l-8.592-13.544l-88,56c-2.308,1.469-3.705,4.016-3.704,6.752v40.656l-111.96,0.576    c-4.418,0.025-7.979,3.628-7.954,8.046c0.001,0.164,0.007,0.327,0.018,0.49l8.904,133.52c-4.673,8.497-8.428,17.468-11.2,26.76    c-14.04-25.117-40.553-40.69-69.328-40.72c-4.418,0-8,3.582-8,8c-0.012,15.525,4.551,30.71,13.12,43.656    c-3.465,1.706-6.693,3.857-9.6,6.4l-2.32,2.048c-28.226,24.792-40.025,63.401-30.48,99.736l4.888,18.888    c6.135,23.72,20.805,44.343,41.2,57.92c17.587,11.805,40.327,12.688,58.776,2.28l-0.448-0.8    c14.976,4.431,30.431,7.042,46.032,7.776c1.6,0.08,3.2,0.08,4.856,0.112v0.656h105.496c119.187,0.106,215.894-96.428,216-215.616    c0-0.128,0-0.256,0-0.384C480.059,258.987,476.477,255.405,472.059,255.405z M355.402,275.765v-4.36h79.672    c-3.08,64.858-42.504,122.422-101.864,148.736c-14.812,6.548-30.486,10.942-46.544,13.048    c12.003-10.453,22.596-22.423,31.512-35.608C342.511,361.623,355.48,319.183,355.402,275.765z M232.059,120.061v38.68    c-26.24-7.274-54.285-3.992-78.136,9.144l-21.296,11.832l-3.936-59.128L232.059,120.061z M145.21,238.949l0.976-1.264    l-10.216-7.88l-2.168-32.408l27.856-15.528c24.373-13.474,53.674-14.661,79.056-3.2c29.996,13.57,64.639,12.176,93.448-3.76    l14.136-7.848l-3.584,53.792c-1.785-1.374-3.736-2.516-5.808-3.4l-11.952-4.984c-6.382-2.679-13.639-2.296-19.704,1.04    c-6.217,3.403-10.533,9.467-11.712,16.456c-8.482,49.146-34.087,93.704-72.28,125.776c-2.813-24.318-14.532-46.732-32.896-62.92    l-2.32-2.048c-16.149-14.377-40.405-14.718-56.952-0.8l-10.072,8.4C123.537,276.736,131.9,256.193,145.21,238.949z     M103.483,303.653c-28.245-3.892-50.452-26.099-54.344-54.344C77.378,253.211,99.58,275.413,103.483,303.653z M58.218,456.077    c-17.118-11.401-29.432-28.713-34.584-48.624l-4.896-18.88c-8.008-30.52,1.919-62.945,25.64-83.752v0l2.32-2.048    c2.841-2.423,6.142-4.249,9.704-5.368c14.832,14.623,34.828,22.814,55.656,22.8c0.51-0.052,1.014-0.154,1.504-0.304    c4.548-0.291,8.89-2.007,12.408-4.904l15.32-12.8c10.5-8.825,25.886-8.604,36.128,0.52l2.32,2.048    c17.954,15.814,28.227,38.595,28.192,62.52c-31.124,21.833-67.561,34.864-105.472,37.72l-35.432,2.664    c-4.182,0.315-7.412,3.806-7.4,8v29.144c0.009,2.849,1.532,5.479,4,6.904l1.112,0.656c6.547,3.801,13.311,7.218,20.256,10.232    C75.579,463.65,66.097,461.338,58.218,456.077z M154.459,462.653l-0.008,0.008c-27.651-1.316-54.622-9.015-78.8-22.496v-17.096    l28-2.112c104.155-7.794,189.704-85.347,207.648-188.24c0.354-2.189,1.697-4.092,3.64-5.16c1.797-1,3.955-1.115,5.848-0.312    l11.952,4.992c4.023,1.667,6.643,5.597,6.632,9.952v33.6c0.071,40.226-11.941,79.546-34.48,112.864    C271.247,438.055,214.126,466.154,154.459,462.653z M264.059,463.405h-25.496c8.837-3.804,17.362-8.295,25.496-13.432v0.744    c26.051,0.049,51.82-5.386,75.632-15.952c65.139-28.881,108.293-92.172,111.384-163.36h12.824    C459.71,378.712,371.447,463.513,264.059,463.405z" fill="#ffffff"/><rect x="368px" y="287px" width="16px" height="16px" fill="#ffffff"/><rect x="344px" y="367px" width="16px" height="16px" fill="#ffffff"/><rect x="368px" y="335px" width="16px" height="16px" fill="#ffffff"/></g><g transform="matrix(0.9836065769195557 0 0 0.9836065769195557 150 326)" id="L1_6" fill="#000000"><path d="m6.942 38.574c-.83902899.263594-1.53333453.8595908-1.921 1.649-.906 1.567-1.509 4.55-.486 8.222.09592581.3442254.36820698.611127.71427782.7001655s.71335497-.0133131.9635-.2685.34514799-.6244401.24922218-.9686655c-.74551751-2.1858699-.6416407-4.5721809.291-6.685.13776823-.3107484.38116351-.5626466.687-.711.34619036-.0893164.61843371-.3565385.71417862-.7010064.09574491-.3444678.00044544-.7138485-.25-.969-.25044545-.2551514-.61798826-.35731-.96417862-.2679936z" id="L1_1" fill="#ffffff"/><path d="m24.5 36c1.9329966 0 3.5-1.5670034 3.5-3.5s-1.5670034-3.5-3.5-3.5-3.5 1.5670034-3.5 3.5 1.5670034 3.5 3.5 3.5zm0-5c.8284271 0 1.5.6715729 1.5 1.5s-.6715729 1.5-1.5 1.5-1.5-.6715729-1.5-1.5.6715729-1.5 1.5-1.5z" id="L1_5" fill="#ffffff"/><circle cx="16" cy="11" r="1" id="L1_2" fill="#ffffff"/><circle cx="23" cy="40" r="1" id="L1_3" fill="#ffffff"/><circle cx="24" cy="45" r="1" id="L1_4" fill="#ffffff"/><circle cx="13" cy="14" r="1" id="Oval" fill="#ffffff"/><path d="m59.614 53.182-13.257-13.258 2.627-23.595c.0935779-.8481458-.1784444-1.6960105-.7479899-2.3314049-.5695454-.6353943-1.3827178-.9981909-2.2360101-.9975951h-4.782l1.612-4.36 9.743-6.821c.4333537-.32308943.5315253-.93206494.2216555-1.37496779-.3098697-.44290284-.9156066-.55940024-1.3676555-.26303221l-10 7c-.1668632.11652473-.2941994.28118963-.365.472l-1.976 5.347h-16.8c-.6895787-2.1824041-1.8348503-4.19344653-3.36-5.9-.8126891-.81230854-1.8143043-1.41018522-2.915-1.74.4704641-1.01037721.7278092-2.10681696.756-3.221.0208374-.55399179-.1892076-1.09177943-.58-1.485-.391436-.39498347-.9314447-.6063386-1.487-.582-1.6964173-.01128518-3.3372977.60404497-4.608 1.728-.87429071.94426456-1.43342247 2.13696249-1.6 3.413-2.692-2.421-4.028-2.647-4.41-2.647-.56075681-.00409908-1.02257568.43953095-1.041 1-.00947313.26090453.08717224.51451423.26787791.70294558.18070567.18843136.43004967.29560307.69112209.29705442.011 0 .934.167 3.024 2.018-1.23517769.17982258-2.38626955.73164904-3.3 1.582-1.12288218 1.26987794-1.73687488 2.9099222-1.724 4.605-.02150686.5415964.17872523 1.0685515.55446657 1.4592017.37574135.3906502.8945104.6112252 1.43653343.6107983h.077c1.11445571-.0285662 2.21114666-.2858904 3.222-.756.32755765 1.1023708.92691576 2.1047396 1.743 2.915 1.8543666 1.6507409 4.0600468 2.8578806 6.45 3.53l1.05 9.445c-.6829054.506667-1.2813094 1.1182338-1.773 1.812-.1148149-.1368779-.2369957-.2674043-.366-.391-.9875149-.8881839-2.1852759-1.5097806-3.48-1.806-1.835-.453-4.862-.018-7.077.43-.62709722.1267306-1.12667666.6005871-1.2863491 1.2201162-.15967245.6195291.04862947 1.2758293.5363491 1.6898838.722.613 1.569 1.289 2.444 1.907-1.69977633.5929217-3.11673443 1.7994581-3.973 3.383-1.7 2.944-2.032 7.168-.881 11.3 1.723 6.148 6.259 10.48 10.629 10.48.5366446.0006806 1.0712204-.0665194 1.591-.2.3739244-.0967682.7383916-.2269589 1.089-.389.3497613.1624249.7135999.2926302 1.087.389 1.7974204.4097379 3.6830184.1352228 5.289-.77.5649762.6175004 1.3630393.9697364 2.2.971h18.878c.8266046-.0037573 1.6152866-.3472914 2.181-.95 1.7317685.6256228 3.5586915.947026 5.4.95h.057c3.8235144.0021959 7.5202387-1.371076 10.415-3.869.4286544-.3704158.6846285-.9019152.707-1.468.02289-.5533496-.1879611-1.0908203-.581-1.481zm-13.022-10.194-7.544-.009c.1876561-1.9575515.9534761-3.8150132 2.2-5.336zm.006 2-5.332 5.332c-1.2508878-1.522226-2.0233212-3.3805894-2.22-5.341zm1.414 1.412.01 7.552c-1.9606716-.196838-3.8193111-.9692415-5.342-2.22zm2.01 7.551-.01-7.545 5.345 5.345c-1.5208155 1.2464862-3.3777421 2.0129253-5.335 2.202zm-4.022-38.951c.2845045.0005144.5555154.1213525.7460391.3326433.1905237.2112907.2827791.4933151.2539609.7763567l-.746 6.7-2.707 1.356c-2.0462232 1.0075314-4.4252074 1.0937555-6.539.237l3.471-9.402zm-10.844 8.635c-1.0169045-.3436506-2.0826064-.5209299-3.156-.525-1.5437075-.0046607-3.0669344.3532822-4.447 1.045-2.2381477 1.1120359-4.8678523 1.1120359-7.106 0l-2.7-1.349-.747-6.696c-.0294427-.2832746.0625639-.5657548.2531908-.7773506.1906269-.2115959.4620086-.3324768.7468092-.3326494h20.347zm-23.65-20.422c.9224512-.74893877 2.0758092-1.15529956 3.264-1.15.0134095 1.19078038-.3910431 2.34858325-1.143 3.272-.9172834.75653265-2.0741461 1.16141686-3.263 1.142-.0196557-1.18919597.3852426-2.34645349 1.142-3.264zm-7.506 9.627c-.01234396-1.1877005.39171586-2.3422077 1.142-3.263.91580194-.7555919 2.07088299-1.16011845 3.258-1.141.01967945 1.18817609-.3828684 2.3447925-1.136 3.264-.92108006.7502363-2.07612098 1.1536513-3.264 1.14zm6.444 2.74c-.77686956-.7784524-1.26807541-1.7964537-1.394-2.889.87284988-1.2338189 1.3442435-2.70666193 1.35-4.218 1.5056219-.01155063 2.9715008-.48447108 4.2-1.355 1.0991326.1265644 2.1235674.6197586 2.908 1.4 1.1631824 1.31139226 2.0656323 2.8325583 2.659 4.482h-2.167c-.8534868-.0006274-1.6668391.3623042-2.2364195.9979286-.5695805.6356243-.8414643 1.4837637-.7475805 2.3320714l.225 2.021c-1.7679559-.5941592-3.399025-1.5363506-4.797-2.771zm6.364 16.858.316 2.843c-.3869595.1790679-.762357.3821299-1.124.608-.2723485.1714228-.5662492.3059311-.874.4.1742184-1.4199275.7587474-2.7582279 1.682-3.851zm-6.375-.91c.9558137.2157278 1.8426352.6667006 2.58 1.312.3816115.2773041.6052293.7223035.6 1.194l-.009.03c-.091.314-.49.6-1.081.769-.9536942.2262801-1.9487995.2108122-2.895-.045-1.74013883-.6787403-3.33820398-1.6765135-4.712-2.942 1.80529565-.4343285 3.67375674-.5420266 5.517-.318zm5.134 26.333c-.3802642-.1000966-.7459701-.2490007-1.088-.443-.3001346-.1684464-.6658004-.1707129-.968-.006-.349412.1955037-.7219941.3463508-1.109.449-3.763.962-8.159-3.019-9.8-8.88-1.01-3.623-.753-7.272.686-9.76.65665068-1.2577869 1.80023667-2.1913782 3.164-2.583 1.05336002-.2535556 2.16057951-.1580996 3.155.272.4452718.1797945.8727923.4007526 1.277.66.6391475.4068098 1.3531142.6818569 2.1.809v1.611c0 .5522847.4477153 1 1 1s1-.4477153 1-1v-1.611c.7409145-.1255741 1.4493769-.3975366 2.084-.8.094-.059.191-.107.287-.162l2.2 19.782c-1.1942533.726611-2.6230349.9637859-3.988.662zm6.993.139c-.5123746.0030519-.9441593-.3816683-1-.891l-3.548-31.935 1.541.77c2.8010446 1.3929609 6.0929554 1.3929609 8.894 0 1.8738745-.915595 4.0293048-1.0707573 6.015-.433l-10.4 28.142c-.1916428.5180431.0729569 1.0933572.591 1.285s1.0933572-.0729569 1.285-.591l10.374-28.071c2.6308894 1.0554874 5.5871876.9379776 8.126-.323l1.549-.776-1.441 12.936-4.727-4.727c-.3963029-.3838463-.9293846-.5936955-1.481-.583-.566592.0223523-1.0985288.2787248-1.469.708-5.4604248 6.3657396-5.0983138 15.8625484.831 21.794 1.0618055 1.060899 2.2668188 1.968025 3.58 2.695zm35.621-3.383c-2.5468095 2.1891017-5.7956732 3.3897687-9.154 3.383h-.007c-1.8317604.0028692-3.6461988-.3545819-5.34-1.052h-.005-.015c-4.1635905-1.7260406-7.2460582-5.3451681-8.2875159-9.7303783-1.0414577-4.3852101.0845998-9.0038339 3.0275159-12.4176217l1.428 1.428c-1.836533 2.1631116-2.8429554 4.9094148-2.839 7.747.0132063 6.6400024 5.3929965 12.0193456 12.033 12.032 2.8378517.0037559 5.5844029-1.0026275 7.748-2.839z" id="Shape" fill="#ffffff"/></g><g transform="matrix(0.11713602393865585 0 0 0.11713602393865585 149 179)" id="L1_7"><path d="m437.832 330.363c4.143 0 7.5-3.357 7.5-7.5v-90.884c0-28.833-23.448-52.291-52.27-52.291h-42.573v-22.09c0-8.835-2.601-17.383-7.521-24.72l-14.356-21.406c11.849-2.587 20.75-13.158 20.75-25.776 0-15.043-12.31-26.387-28.634-26.387h-41.389l5.503-32.603c1.124-6.66-.731-13.438-5.092-18.596-4.359-5.153-10.73-8.11-17.479-8.11-11.219 0-20.712 8.033-22.573 19.101l-6.758 40.21h-49.643c-4.142 0-7.5 3.357-7.5 7.5s3.358 7.5 7.5 7.5h137.429c8.027 0 13.634 4.683 13.634 11.387 0 6.278-5.104 11.387-11.377 11.387h-228.585c-6.273 0-11.377-5.108-11.377-11.387s5.104-11.387 11.377-11.387h53.647c4.142 0 7.5-3.357 7.5-7.5s-3.358-7.5-7.5-7.5h-53.647c-14.544 0-26.377 11.837-26.377 26.387 0 12.618 8.901 23.189 20.75 25.776l-14.356 21.406c-4.921 7.337-7.522 15.885-7.522 24.72v268.763c0 24.551 17.503 45.085 40.681 49.78v16.567c0 10.76 8.751 19.514 19.507 19.514l163.22.003h.003c5.21 0 10.108-2.03 13.793-5.716 3.684-3.686 5.712-8.585 5.712-13.797v-16.571c15.429-3.125 28.335-13.274 35.246-26.951h47.999c28.826 0 52.278-23.462 52.278-52.3v-39.326c0-4.143-3.357-7.5-7.5-7.5s-7.5 3.357-7.5 7.5v39.326c0 20.567-16.723 37.3-37.278 37.3h-43.179c.397-2.554.615-5.166.615-7.829v-14.166h37.231c13.479 0 24.446-10.97 24.446-24.453v-146.616c0-13.484-10.967-24.454-24.446-24.454h-37.231v-21.985h42.573c20.551 0 37.27 16.729 37.27 37.291v90.884c-.001 4.142 3.356 7.499 7.499 7.499zm-167.782-306.151-5.924 35.099h-15.974l6.34-37.724c.641-3.816 3.914-6.587 7.78-6.587 2.359 0 4.498.993 6.022 2.796 1.526 1.806 2.149 4.084 1.756 6.416zm-30.81 88.125h15.936l-13.28 78.683c-5.138-.708-10.283-1.618-15.427-2.692zm-152.368 28.897 19.381-28.897h117.776l-12.19 72.532c-13.445-3.525-26.89-7.935-39.911-12.341-28.833-9.756-58.57-19.795-89.056-22.391.826-3.148 2.158-6.157 4-8.903zm207.936 351.478c0 1.206-.47 2.34-1.321 3.192s-1.981 1.32-3.185 1.32h-.001l-163.221-.003c-2.485 0-4.507-2.024-4.507-4.514v-15.557h172.235zm4.911-30.561h-182.056c-19.724 0-35.77-16.056-35.77-35.79l.004-261.273c28.618 2.496 57.355 12.219 85.222 21.649 35.458 11.998 73.164 23.631 111.229 20.321 7.546-.656 15.041-1.92 22.36-3.877 12.413-3.318 24.212-8.825 34.778-16.176l.003 239.355c0 19.736-16.046 35.791-35.77 35.791zm35.77-294.169c-11.127 9.769-24.426 16.905-38.654 20.708-13.071 3.494-26.458 4.485-39.971 3.772l13.524-80.126h40.741l19.382 28.897c3.257 4.856 4.979 10.516 4.979 16.364v10.385zm52.231 63.692c5.209 0 9.446 4.241 9.446 9.454v146.614c0 5.213-4.237 9.453-9.446 9.453h-37.231v-165.521z" fill="#ffffff"/><path d="m121.67 218.679c-5.523 0-10 4.479-10 10.005 0 5.525 4.477 10.005 10 10.005s10-4.479 10-10.005-4.477-10.005-10-10.005z" fill="#ffffff"/><path d="m158.046 248.693c-5.523 0-10 4.479-10 10.005 0 5.525 4.477 10.005 10 10.005s10-4.479 10-10.005c0-5.525-4.477-10.005-10-10.005z" fill="#ffffff"/><path d="m276.555 301.252c-5.523 0-10 4.479-10 10.005 0 5.525 4.477 10.005 10 10.005s10-4.479 10-10.005c0-5.525-4.477-10.005-10-10.005z" fill="#ffffff"/><path d="m192.63 375.608c-5.523 0-10 4.479-10 10.005 0 5.525 4.477 10.005 10 10.005s10-4.479 10-10.005-4.478-10.005-10-10.005z" fill="#ffffff"/><ellipse cx="239px" cy="248px" rx="10px" ry="10px" fill="#ffffff"/><path d="m212.63 348.709c-5.523 0-10 4.479-10 10.005s4.477 10.005 10 10.005 10-4.479 10-10.005c0-5.525-4.478-10.005-10-10.005z" fill="#ffffff"/><ellipse cx="296px" cy="408px" rx="10px" ry="10px" fill="#ffffff"/><ellipse cx="121px" cy="343px" rx="10px" ry="10px" fill="#ffffff"/></g><g transform="matrix(0.12494247406721115 0 0 0.12494247406721115 -17.000000594818914 112)" id="L1_8"><path d="M416.217,64.221H282.265C251.445,5.549,178.898-17.031,120.226,13.789S38.974,117.155,69.793,175.828    c5.666,10.786,12.941,20.646,21.575,29.242c1.493,1.507,3.527,2.353,5.648,2.352c2.122,0,4.156-0.844,5.656-2.344l22.624-22.624    l42.92-42.92v316.688c0,13.255,10.745,24,24,24h208c13.255,0,24-10.745,24-24v-384C424.217,67.803,420.635,64.221,416.217,64.221z     M279.913,112.221h-16.104c-1.015-11.166-4.174-22.031-9.304-32h17.6C276.406,90.4,279.042,101.205,279.913,112.221z     M97.233,187.885c-37.37-43.619-32.304-109.273,11.314-146.642c18.848-16.148,42.85-25.023,67.67-25.022    c35.444,0.034,68.428,18.127,87.504,48h-19.672C214.07,25.968,158.756,19.26,120.503,49.239    c-38.254,29.979-44.961,85.292-14.983,123.546c0.995,1.27,2.025,2.512,3.088,3.725L97.233,187.885z M247.769,112.221h-63.552v-32    h51.776C242.444,89.78,246.485,100.76,247.769,112.221z M168.217,72.221v44.688l-48.256,48.256    C95.099,134.176,100.067,88.9,131.056,64.039c26.386-21.169,63.956-21.093,90.257,0.182h-45.096    C171.798,64.221,168.217,67.803,168.217,72.221z M408.217,456.221c0,4.418-3.582,8-8,8h-208c-4.418,0-8-3.582-8-8v-16.208    c6.883,5.294,15.316,8.179,24,8.208h176c8.684-0.029,17.117-2.914,24-8.208V456.221z M408.217,408.221c0,13.255-10.745,24-24,24    h-176c-13.255,0-24-10.745-24-24v-248h224V408.221z M408.217,144.221h-224v-16h104c4.418,0,8-3.582,8-8    c-0.03-13.635-2.398-27.165-7-40h119V144.221z" fill="#ffffff"/><path d="M384.217,304.221c-4.418,0-8,3.582-8,8v56c0,4.418,3.582,8,8,8s8-3.582,8-8v-56    C392.217,307.803,388.635,304.221,384.217,304.221z" fill="#ffffff"/><path d="M384.217,392.221c-4.418,0-8,3.582-8,8v8c0,4.418,3.582,8,8,8s8-3.582,8-8v-8    C392.217,395.803,388.635,392.221,384.217,392.221z" fill="#ffffff"/></g></defs><g fi:class="KUsePattern"><pattern id="pattern_L1_0" width="350" height="350" patternUnits="userSpaceOnUse"><use xlink:href="#L1_0" x="-350" y="-350"/><use xlink:href="#L1_0" x="0" y="-350"/><use xlink:href="#L1_0" x="350" y="-350"/><use xlink:href="#L1_0" x="-350" y="0"/><use xlink:href="#L1_0" x="0" y="0"/><use xlink:href="#L1_0" x="350" y="0"/><use xlink:href="#L1_0" x="-350" y="350"/><use xlink:href="#L1_0" x="0" y="350"/><use xlink:href="#L1_0" x="350" y="350"/></pattern><rect x="0" y="0" width="100%" height="100%" fill="url(#pattern_L1_0)"/></g><g fi:class="KUsePattern"><pattern id="pattern_L1_6" width="350" height="350" patternUnits="userSpaceOnUse"><use xlink:href="#L1_6" x="-350" y="-350"/><use xlink:href="#L1_6" x="0" y="-350"/><use xlink:href="#L1_6" x="350" y="-350"/><use xlink:href="#L1_6" x="-350" y="0"/><use xlink:href="#L1_6" x="0" y="0"/><use xlink:href="#L1_6" x="350" y="0"/><use xlink:href="#L1_6" x="-350" y="350"/><use xlink:href="#L1_6" x="0" y="350"/><use xlink:href="#L1_6" x="350" y="350"/></pattern><rect x="0" y="0" width="100%" height="100%" fill="url(#pattern_L1_6)"/></g><g fi:class="KUsePattern"><pattern id="pattern_L1_7" width="350" height="350" patternUnits="userSpaceOnUse"><use xlink:href="#L1_7" x="-350" y="-350"/><use xlink:href="#L1_7" x="0" y="-350"/><use xlink:href="#L1_7" x="350" y="-350"/><use xlink:href="#L1_7" x="-350" y="0"/><use xlink:href="#L1_7" x="0" y="0"/><use xlink:href="#L1_7" x="350" y="0"/><use xlink:href="#L1_7" x="-350" y="350"/><use xlink:href="#L1_7" x="0" y="350"/><use xlink:href="#L1_7" x="350" y="350"/></pattern><rect x="0" y="0" width="100%" height="100%" fill="url(#pattern_L1_7)"/></g><g fi:class="KUsePattern"><pattern id="pattern_L1_8" width="350" height="350" patternUnits="userSpaceOnUse"><use xlink:href="#L1_8" x="-350" y="-350"/><use xlink:href="#L1_8" x="0" y="-350"/><use xlink:href="#L1_8" x="350" y="-350"/><use xlink:href="#L1_8" x="-350" y="0"/><use xlink:href="#L1_8" x="0" y="0"/><use xlink:href="#L1_8" x="350" y="0"/><use xlink:href="#L1_8" x="-350" y="350"/><use xlink:href="#L1_8" x="0" y="350"/><use xlink:href="#L1_8" x="350" y="350"/></pattern><rect x="0" y="0" width="100%" height="100%" fill="url(#pattern_L1_8)"/></g></svg>